<svg height="512" viewBox="0 0 512 512" width="512" xmlns="http://www.w3.org/2000/svg" xmlns:xlink="http://www.w3.org/1999/xlink"><clipPath id="a"><path d="m0 0h512v374.491h-512z"/></clipPath><linearGradient id="b" gradientUnits="objectBoundingBox" x2="1" y1="-.889" y2="1.889"><stop offset="0" stop-color="#2383ae"/><stop offset="1" stop-color="#6dd7b9"/></linearGradient><clipPath id="c"><path d="m0 0h512v512h-512z"/></clipPath><g clip-path="url(#c)"><g clip-path="url(#a)" transform="translate(0 69)"><path d="m133.543 120.533q25.234-101.017 126.25-101.017c101.017 0 113.619 75.726 164.113 88.372q50.509 12.638 88.371-37.863-25.234 100.995-126.234 101c-101.021 0-113.619-75.727-164.113-88.372q-50.508-12.638-88.372 37.863zm-126.249 151.511q25.276-101.017 126.249-101.017c101.017 0 113.619 75.726 164.113 88.372q50.508 12.638 88.372-37.863-25.228 101.016-126.249 101.016c-101.017 0-113.619-75.726-164.113-88.372q-50.509-12.638-88.372 37.864z" fill="url(#b)" fill-rule="evenodd" transform="translate(-.277 16.324)"/></g></g></svg>